<?xml version="1.0" encoding="UTF-8"?>
<svg id="Capa_2" data-name="Capa 2" xmlns="http://www.w3.org/2000/svg" viewBox="0 0 67.22 67.23">
  <defs>
    <style>
      .cls-1 {
        fill: #fff;
        stroke-width: 0px;
      }
    </style>
  </defs>
  <g id="vinilo">
    <g>
      <g id="LZOp2l.tif">
        <g>
          <path class="cls-1" d="M12.47,20.22h15.08c.2.06.4.12.6.17,2.79.64,4.68,2.23,5.24,5.11.6,3.03-.3,5.65-3.1,6.55-.02,0-.02.06-.04.12,2.33.36,3.51,1.89,3.93,4.03.22,1.13.31,2.33.21,3.48-.24,2.93-1.76,5.03-4.56,6-1.2.42-2.51.66-3.77.68-4.27.08-8.54.03-12.81.03-.25,0-.49,0-.78,0v-26.18ZM18.54,41.69c2.58,0,5.09.07,7.6-.03,1.54-.06,2.4-.91,2.63-2.37.1-.66.1-1.37-.01-2.03-.29-1.68-1.33-2.5-3.04-2.51-2.16,0-4.32,0-6.48,0-.22,0-.45.02-.69.04v6.89ZM18.55,30.65c2.56,0,5.05.01,7.54,0,.82,0,1.46-.46,1.58-1.25.16-.98.23-2,.1-2.97-.13-1.02-.93-1.53-1.97-1.54-2.25,0-4.51,0-6.76,0-.16,0-.31.04-.49.06v5.71Z"/>
          <path class="cls-1" d="M54.74,38.22c-4.25,0-8.5.02-12.75.02-.28,0-.55,0-.81,0-.19,2.05.96,3.77,2.86,4.3,1.3.36,2.61.31,3.88-.12.99-.34,1.69-.98,1.93-2.05.04-.17.31-.41.48-.41,1.36-.03,2.72-.02,4.22-.02-.06.57-.06,1.1-.16,1.6-.52,2.57-2.22,4.06-4.62,4.82-2.67.84-5.38.85-8.05.06-3.64-1.08-5.49-3.72-6.13-7.33-.31-1.76-.14-3.5.35-5.21,1.26-4.36,4.4-6.85,8.94-7,1.18-.04,2.41.06,3.56.33,3.45.82,5.24,3.23,6,6.55.1.45.2.91.3,1.36v3.09ZM41.11,34.72c2.74,0,5.44,0,8.13,0,.11,0,.22-.03.33-.05-.02-2.18-1.37-3.74-3.37-3.9-2.68-.22-4.63,1.27-5.1,3.95Z"/>
          <path class="cls-1" d="M50.71,24.96h-10.78v-3.16h10.78v3.16Z"/>
        </g>
      </g>
      <path class="cls-1" d="M66.71,14.32c-1.48-5.94-5.03-10.18-10.57-12.73-2.41-1.12-4.97-1.59-7.63-1.59-9.93.01-19.86,0-29.79.02-1.32.01-2.67.13-3.97.39C7.44,1.92,1.7,7.77.34,15.08c-.22,1.17-.31,2.38-.32,3.58C0,28.63,0,38.61,0,48.59c0,8.98,6.21,16.54,15.01,18.31.59.12,1.19.22,1.79.33h33.61c.82-.17,1.66-.3,2.48-.51,5.92-1.47,10.15-5.02,12.73-10.53.77-1.65,1.22-3.4,1.45-5.2.03-.19.09-.38.14-.57V16.81c-.17-.83-.3-1.67-.51-2.49ZM61.16,49.27c-.14,4.78-2.58,8.29-6.75,10.57-1.86,1.02-3.88,1.4-6,1.39-9.86-.01-19.73-.04-29.6.02-6.3.03-11.42-4.37-12.54-10.03-.19-.96-.25-1.95-.25-2.93-.02-9.78.04-19.56-.04-29.34-.04-6.04,3.81-10.73,8.58-12.3,1.41-.47,2.84-.65,4.32-.65,9.82,0,19.64.05,29.47,0,5.91-.04,10.62,3.73,12.23,8.57.48,1.45.65,2.93.64,4.45v14.64h-.03c0,5.21.12,10.42-.03,15.62Z"/>
    </g>
  </g>
</svg>