<?xml version="1.0" encoding="UTF-8"?>
<svg id="Capa_2" data-name="Capa 2" xmlns="http://www.w3.org/2000/svg" viewBox="0 0 67.22 67.23">
  <defs>
    <style>
      .cls-1 {
        fill: #fff;
        stroke-width: 0px;
      }
    </style>
  </defs>
  <g id="vinilo">
    <g id="lsVRKu.tif">
      <g>
        <path class="cls-1" d="M50.41,67.23H16.81c-.6-.11-1.2-.21-1.79-.33C6.22,65.13.02,57.57,0,48.59c-.01-9.98-.01-19.95.01-29.93,0-1.2.1-2.41.31-3.58C1.69,7.77,7.43,1.92,14.75.41c1.3-.27,2.64-.39,3.97-.39C28.65,0,38.58.01,48.51,0c2.66,0,5.22.47,7.63,1.59,5.54,2.56,9.09,6.8,10.57,12.73.21.82.34,1.66.51,2.49v33.61c-.05.19-.11.37-.14.57-.23,1.8-.69,3.55-1.46,5.2-2.58,5.51-6.8,9.06-12.73,10.54-.82.2-1.66.34-2.49.5ZM61.19,33.65s.02,0,.03,0c0-4.88,0-9.76,0-14.64,0-1.52-.16-3-.65-4.45-1.61-4.84-6.32-8.61-12.23-8.58-9.82.07-19.65.02-29.47.02-1.47,0-2.91.18-4.32.65-4.78,1.58-8.62,6.27-8.58,12.3.08,9.78.01,19.56.03,29.34,0,.98.07,1.97.26,2.93,1.12,5.66,6.23,10.07,12.54,10.03,9.87-.06,19.73-.02,29.6-.01,2.11,0,4.14-.38,5.99-1.39,4.17-2.28,6.61-5.79,6.75-10.57.15-5.2.04-10.41.04-15.62Z"/>
        <path class="cls-1" d="M33.62,50.94c-9.56,0-17.35-7.79-17.34-17.35.01-9.53,7.79-17.3,17.31-17.31,9.55,0,17.35,7.79,17.34,17.35-.01,9.53-7.79,17.3-17.31,17.31ZM33.63,22.3c-6.28-.02-11.33,5.03-11.34,11.31,0,6.26,4.99,11.28,11.26,11.33,6.27.04,11.34-4.99,11.37-11.28.03-6.27-5.01-11.34-11.29-11.36Z"/>
        <path class="cls-1" d="M51.64,19.98c-2.41,0-4.38-1.98-4.37-4.38.01-2.38,2.04-4.4,4.4-4.37,2.4.03,4.38,2.03,4.37,4.41-.01,2.4-1.99,4.36-4.41,4.35Z"/>
      </g>
    </g>
  </g>
</svg>