<?xml version="1.0" encoding="UTF-8"?>
<svg id="Capa_2" data-name="Capa 2" xmlns="http://www.w3.org/2000/svg" viewBox="0 0 254.72 158.59">
  <defs>
    <style>
      .cls-1 {
        fill: #2c4430;
        stroke-width: 0px;
      }
    </style>
  </defs>
  <g id="Capa_1-2" data-name="Capa 1">
    <g id="jxy0Yi">
      <g>
        <path class="cls-1" d="M159.09,91.25c-6.82,10.74-26.27,41.41-29.17,45.98-.23.37-.6.61-1.03.68-8.84,1.44-102.72,16.68-127.1,20.67-1.56.26-2.44-1.73-1.21-2.72,23.62-18.84,130.94-103.18,142-111.87.55-.43,1.31-.44,1.86-.02l6.4,4.73c.77.57.84,1.71.14,2.37l-74.99,70.06c-.94.88.21,2.35,1.29,1.65l91.58-59.58c.54-.35,1.24-.33,1.76.05l21.45,15.91c.92.68,2.23.08,2.31-1.06l2.18-31.53c.03-.48.28-.91.68-1.17,3.32-2.22,19.13-12.78,28.37-18.83.83-.55.41-1.84-.58-1.79-7.63.4-20.85,1.05-25.57,1.28-.92.05-1.68-.73-1.61-1.65l.99-13.77c.06-.85.8-1.49,1.66-1.43l52.82,4.08c1.34.1,1.92,1.76.93,2.67l-49.41,45.63c-.56.52-.66,1.36-.23,1.99l36.34,53.9c.64.94.07,2.23-1.06,2.39-11.55,1.64-66.36,9.87-77.65,11.57-1.07.16-2.02-.67-2-1.75.12-6.9.53-29.27.66-37.89.02-.98-1.27-1.37-1.8-.53Z"/>
        <path class="cls-1" d="M89.78,0l102.83,8.42c1.33.11,1.9,1.75.93,2.66l-16.38,15.36c-.27.25-.61.4-.97.41l-50.73,2.62c-.36.02-.71-.09-1-.3L88.74,2.78c-1.25-.92-.5-2.9,1.04-2.78Z"/>
      </g>
    </g>
  </g>
</svg>