<?xml version="1.0" encoding="UTF-8"?>
<svg id="Capa_2" data-name="Capa 2" xmlns="http://www.w3.org/2000/svg" viewBox="0 0 67.22 67.23">
  <defs>
    <style>
      .cls-1 {
        fill: #fff;
        stroke-width: 0px;
      }
    </style>
  </defs>
  <g id="vinilo">
    <g>
      <g id="lsVRKu.tif">
        <path class="cls-1" d="M50.41,67.23H16.81c-.6-.11-1.2-.21-1.79-.33C6.22,65.13.02,57.57,0,48.59c-.01-9.98-.01-19.95.01-29.93,0-1.2.1-2.41.31-3.58C1.69,7.77,7.43,1.92,14.75.41c1.3-.27,2.64-.39,3.97-.39C28.65,0,38.58.01,48.51,0c2.66,0,5.22.47,7.63,1.59,5.54,2.56,9.09,6.8,10.57,12.73.21.82.34,1.66.51,2.49v33.61c-.05.19-.11.37-.14.57-.23,1.8-.69,3.55-1.46,5.2-2.58,5.51-6.8,9.06-12.73,10.54-.82.2-1.66.34-2.49.5ZM61.19,33.65s.02,0,.03,0c0-4.88,0-9.76,0-14.64,0-1.52-.16-3-.65-4.45-1.61-4.84-6.32-8.61-12.23-8.58-9.82.07-19.65.02-29.47.02-1.47,0-2.91.18-4.32.65-4.78,1.58-8.62,6.27-8.58,12.3.08,9.78.01,19.56.03,29.34,0,.98.07,1.97.26,2.93,1.12,5.66,6.23,10.07,12.54,10.03,9.87-.06,19.73-.02,29.6-.01,2.11,0,4.14-.38,5.99-1.39,4.17-2.28,6.61-5.79,6.75-10.57.15-5.2.04-10.41.04-15.62Z"/>
      </g>
      <g id="fiwqiC.tif">
        <path class="cls-1" d="M51.56,15.03c-1.81,2.08-3.62,4.17-5.45,6.25-2.76,3.15-5.53,6.29-8.34,9.48,4.98,7.1,9.97,14.2,15,21.38-.24.02-.4.04-.57.04-3.32,0-6.65,0-9.97.01-.4,0-.62-.13-.85-.45-3.13-4.48-6.27-8.95-9.41-13.42-.12-.17-.24-.32-.4-.53-1.36,1.55-2.7,3.06-4.03,4.57-2.78,3.16-5.55,6.33-8.34,9.48-.16.18-.48.31-.73.32-.95.04-1.9.02-2.85.02,0-.04,0-.08,0-.12.19-.18.4-.35.57-.54,3.56-4.04,7.11-8.08,10.66-12.12,1.09-1.24,2.17-2.48,3.25-3.72-4.04-5.75-8.05-11.47-12.07-17.18-.79-1.12-1.61-2.23-2.42-3.34.17-.04.33-.12.5-.12,3.55,0,7.1,0,10.65,0,.1.18.19.36.31.53,1.99,2.84,3.98,5.67,5.97,8.5,1.06,1.51,2.13,3.03,3.23,4.59.2-.22.37-.4.53-.58,2.75-3.13,5.51-6.25,8.26-9.39,1.06-1.21,2.09-2.43,3.13-3.65,1.11,0,2.23,0,3.34,0ZM48.25,49.86c-.16-.24-.24-.38-.33-.5-7.5-10.5-14.99-21-22.51-31.49-.15-.2-.49-.37-.75-.38-1.32-.04-2.64-.02-3.96-.01-.15,0-.29.03-.49.06.17.25.29.44.42.62,4.59,6.42,9.18,12.85,13.76,19.27,2.84,3.97,5.67,7.95,8.52,11.92.16.22.45.48.69.49,1.5.04,3.01.02,4.64.02Z"/>
      </g>
    </g>
  </g>
</svg>